<?xml version="1.0" encoding="iso-8859-1"?>
<!-- Generator: Adobe Illustrator 19.0.0, SVG Export Plug-In . SVG Version: 6.00 Build 0)  -->
<svg version="1.1" id="Capa_1" xmlns="http://www.w3.org/2000/svg" xmlns:xlink="http://www.w3.org/1999/xlink" x="0px" y="0px"
	 viewBox="0 0 220 220" style="enable-background:new 0 0 220 220;" xml:space="preserve">
<path d="M211.5,15.022C211.5,6.726,204.774,0,196.478,0H23.522C15.226,0,8.5,6.726,8.5,15.022v189.955
	C8.5,213.274,15.226,220,23.522,220h172.955c8.297,0,15.022-6.726,15.022-15.022V15.022z M88.5,199h-49v-45h49V199z M88.5,132h-49
	V88h49V132z M88.5,66h-49V21h49V66z M144.803,199.63l-26.306-26.306l11.205-11.205l15.101,15.102l23.65-23.65l11.205,11.205
	L144.803,199.63z M144.803,133.03l-26.306-26.306l11.205-11.205l15.101,15.101l23.65-23.65l11.205,11.205L144.803,133.03z
	 M144.803,66.429l-26.306-26.306l11.205-11.205l15.101,15.101l23.65-23.65l11.205,11.205L144.803,66.429z"/>
<g>
</g>
<g>
</g>
<g>
</g>
<g>
</g>
<g>
</g>
<g>
</g>
<g>
</g>
<g>
</g>
<g>
</g>
<g>
</g>
<g>
</g>
<g>
</g>
<g>
</g>
<g>
</g>
<g>
</g>
</svg>
